<?xml version="1.0" standalone="no"?>
<!DOCTYPE svg PUBLIC "-//W3C//DTD SVG 20010904//EN"
 "http://www.w3.org/TR/2001/REC-SVG-20010904/DTD/svg10.dtd">
<svg version="1.0" xmlns="http://www.w3.org/2000/svg"
 width="1536.000000pt" height="1024.000000pt" viewBox="0 0 1536.000000 1024.000000"
 preserveAspectRatio="xMidYMid meet">

<g transform="translate(0.000000,1024.000000) scale(0.100000,-0.100000)"
fill="#000000" stroke="none">
<path d="M70 5135 l0 -5065 6478 -2 c3562 -2 6988 -2 7612 0 l1135 2 -3 5065
-2 5065 -7610 0 -7610 0 0 -5065z m15180 1345 l0 -3679 -42 19 c-24 11 -51 20
-60 20 -14 0 -18 9 -18 41 0 23 -5 60 -12 81 -16 54 -88 132 -140 153 -44 18
-146 24 -185 11 -22 -7 -23 -5 -23 41 -1 91 -62 182 -152 227 -89 45 -195 32
-288 -34 l-29 -20 -46 49 c-146 156 -431 104 -516 -94 -18 -40 -28 -53 -39
-49 -68 28 -178 7 -242 -46 -41 -34 -88 -120 -88 -162 0 -28 0 -28 -68 -28
-58 0 -75 -4 -115 -29 -48 -31 -91 -87 -102 -133 -6 -22 -12 -27 -29 -23 -133
32 -832 180 -966 205 -96 19 -176 34 -177 35 -2 1 6 27 17 58 39 111 18 215
-62 302 -64 70 -124 98 -210 99 l-67 0 -11 42 c-25 89 -109 153 -201 154 l-46
0 -6 40 c-3 22 -17 61 -32 86 -34 58 -111 98 -180 92 l-43 -3 -15 55 c-65 232
-342 290 -505 105 l-39 -45 -34 18 c-46 23 -162 23 -208 -1 -19 -9 -36 -16
-37 -14 -3 3 -9 160 -19 510 l-6 187 46 0 45 0 0 235 0 235 -125 0 -125 0 0
330 0 330 54 0 c30 0 58 5 61 10 8 14 -203 396 -436 792 -114 192 -123 226
-66 249 17 8 66 14 107 14 71 0 83 -3 185 -53 160 -78 339 -181 515 -298 542
-358 978 -861 1296 -1495 78 -156 158 -339 152 -344 -2 -1 -31 -7 -66 -13 -96
-17 -174 -57 -232 -118 -190 -200 -121 -493 144 -618 83 -39 160 -57 276 -63
109 -6 233 11 307 42 31 13 37 12 116 -25 309 -147 780 -145 1076 5 l44 22 53
-29 c135 -73 303 -106 451 -88 94 12 215 54 277 96 36 25 48 27 141 28 92 1
106 4 167 34 260 128 263 436 6 568 -42 22 -71 28 -139 32 l-87 4 -23 52 c-14
28 -52 79 -89 116 -113 114 -249 167 -408 157 l-82 -5 -6 27 c-28 128 -99 249
-191 324 -80 66 -201 124 -300 145 -46 9 -83 21 -83 25 0 21 -131 316 -223
501 -242 491 -528 900 -932 1336 -532 572 -1160 1021 -1869 1335 -518 229
-1208 406 -1831 469 -188 20 -459 36 -593 36 l-103 0 3 73 3 72 55 3 c40 2 74
-4 123 -23 120 -45 207 -33 331 47 100 65 129 67 269 26 83 -25 147 -20 221
16 59 29 131 98 123 118 -3 9 -33 19 -76 25 -93 14 -141 39 -230 117 -143 127
-241 147 -415 87 -81 -29 -132 -26 -221 9 -48 19 -93 30 -125 30 -28 0 -50 5
-50 10 0 6 5 10 11 10 5 0 17 16 25 35 18 44 4 83 -39 103 -88 43 -159 -70
-87 -138 l30 -28 0 -296 0 -296 -47 0 c-27 0 -133 -5 -238 -10 -630 -34 -1111
-125 -1832 -349 -160 -50 -191 -61 -408 -158 -683 -303 -1238 -661 -1785
-1149 -141 -126 -437 -423 -557 -559 -351 -397 -635 -847 -838 -1324 l-62
-144 -71 -18 c-121 -31 -198 -74 -288 -164 -66 -66 -86 -94 -110 -152 l-29
-71 -105 -4 c-81 -3 -116 -9 -154 -26 -117 -53 -216 -162 -253 -278 l-17 -54
-42 0 c-23 0 -70 -9 -103 -19 -186 -58 -290 -211 -259 -381 28 -157 173 -283
393 -341 61 -16 121 -23 256 -26 196 -6 314 8 447 53 l74 24 52 -29 c72 -41
245 -97 339 -110 221 -30 444 8 657 114 l85 42 40 -24 c126 -73 360 -104 519
-69 167 38 305 137 364 263 23 50 27 71 27 148 0 76 -5 99 -27 147 -51 110
-173 201 -286 215 -29 3 -52 9 -52 13 0 18 128 318 180 422 364 727 1020 1346
1855 1752 148 72 371 166 393 166 8 0 12 -31 12 -101 0 -94 -2 -103 -29 -142
-101 -148 -531 -888 -531 -914 0 -15 8 -16 73 -13 l48 2 -3 -329 -3 -328 -125
-5 -125 -5 0 -230 0 -230 43 -3 42 -3 0 -103 c0 -57 -3 -184 -7 -284 l-6 -182
-26 8 c-14 4 -49 6 -77 5 l-51 -2 -24 50 c-33 71 -89 125 -167 162 -61 29 -76
32 -167 32 -89 0 -107 -3 -162 -29 -110 -51 -213 -186 -213 -281 0 -24 -3 -25
-64 -25 -103 0 -184 -39 -236 -115 -30 -43 -60 -131 -60 -175 0 -24 -3 -26
-53 -26 -57 -1 -118 -27 -154 -66 -26 -27 -53 -88 -53 -118 0 -15 -13 -26 -47
-41 -57 -24 -80 -43 -101 -84 -26 -52 -31 -94 -17 -143 8 -25 12 -49 10 -52
-3 -4 -33 -10 -67 -14 -139 -15 -628 -101 -1063 -186 -452 -88 -474 -91 -475
-58 0 3 -12 21 -26 38 -34 39 -91 69 -142 72 -38 3 -41 5 -47 42 -9 57 -43
112 -88 143 -36 25 -49 28 -122 28 -54 0 -88 -5 -98 -13 -14 -12 -18 -9 -31
22 -23 55 -100 131 -159 156 -150 65 -349 -13 -403 -157 -10 -27 -18 -49 -19
-50 -1 -2 -17 2 -36 7 -103 31 -222 -55 -251 -180 l-11 -50 -60 0 c-34 0 -74
-7 -93 -16 -48 -23 -102 -89 -111 -137 -8 -37 -11 -41 -56 -52 l-47 -12 0
3649 0 3648 7570 0 7570 0 0 -3680z m-7529 3374 c17 -21 0 -49 -31 -49 -31 0
-48 28 -31 49 8 9 21 16 31 16 10 0 23 -7 31 -16z m177 -178 c99 -41 133 -42
243 -7 167 54 242 37 373 -80 82 -74 153 -114 219 -125 37 -7 37 -7 20 -27
-51 -57 -160 -72 -271 -37 -110 34 -172 26 -272 -38 -126 -80 -181 -89 -283
-45 -49 21 -78 27 -134 27 l-73 0 0 184 0 185 58 -6 c31 -3 85 -17 120 -31z
m-240 -573 c-1 -5 -34 -67 -73 -140 -46 -87 -77 -134 -90 -137 -11 -3 -54 -6
-96 -6 -101 0 -482 -36 -649 -61 -1189 -179 -2287 -698 -3195 -1511 -555 -497
-1049 -1163 -1307 -1765 l-27 -61 -47 14 c-26 8 -85 17 -131 21 -46 3 -83 7
-83 9 0 12 112 259 173 382 206 412 431 739 769 1117 726 811 1728 1475 2713
1798 442 145 901 248 1320 296 298 35 731 61 723 44z m403 -3 c1310 -74 2444
-486 3389 -1233 240 -190 596 -534 804 -777 362 -424 683 -940 893 -1440 85
-203 83 -190 31 -191 -24 0 -74 -8 -113 -19 -38 -10 -73 -15 -76 -12 -3 4 -34
70 -69 147 -119 264 -290 566 -482 853 -455 677 -1024 1212 -1723 1621 -500
293 -1146 530 -1805 660 -281 56 -576 91 -908 109 l-133 7 -75 143 -75 142 79
0 c43 0 161 -5 263 -10z m-334 -102 c18 -35 74 -142 126 -238 217 -408 575
-1126 565 -1135 -2 -2 -28 1 -58 5 -372 57 -767 62 -1222 14 -82 -8 -156 -14
-165 -12 -13 2 31 96 209 448 271 536 501 979 508 980 3 0 20 -28 37 -62z
m-247 -224 c0 -9 -138 -278 -152 -296 -10 -13 -44 -19 -158 -28 -1180 -94
-2307 -542 -3220 -1280 -561 -454 -995 -973 -1306 -1565 -54 -103 -136 -278
-157 -338 -6 -16 -13 -13 -59 26 -29 25 -77 59 -106 77 -28 17 -52 33 -52 35
0 11 81 189 134 295 230 460 576 922 1017 1357 598 590 1348 1063 2148 1355
383 140 837 255 1211 307 289 40 700 72 700 55z m635 -4 c665 -48 1268 -184
1880 -423 549 -214 1078 -537 1520 -928 142 -125 417 -406 524 -534 326 -391
625 -863 826 -1302 86 -190 85 -183 33 -212 -23 -13 -66 -47 -96 -74 -30 -29
-56 -46 -61 -41 -4 5 -23 45 -41 89 -54 128 -222 458 -311 610 -435 743 -1022
1332 -1752 1759 -708 414 -1546 669 -2420 737 l-158 13 -74 140 c-98 188 -95
176 -49 176 22 0 102 -5 179 -10z m140 -365 c368 -25 894 -128 1278 -252 1259
-405 2204 -1157 2841 -2262 98 -170 210 -393 281 -560 l55 -130 -30 -47 c-16
-27 -30 -54 -30 -62 0 -11 -7 -12 -27 -7 -16 4 -52 10 -80 14 -29 4 -55 10
-57 12 -2 2 -25 51 -50 107 -143 319 -328 635 -524 897 -463 618 -957 1049
-1578 1377 -555 295 -1203 501 -1812 577 -90 12 -180 21 -200 21 -72 0 -75 3
-156 160 -42 82 -76 154 -76 160 0 8 12 10 38 6 20 -3 78 -8 127 -11z m-965
-2 c-1 -5 -36 -75 -79 -158 -60 -116 -83 -152 -102 -157 -13 -4 -103 -16 -199
-27 -605 -70 -1286 -273 -1833 -547 -288 -145 -621 -357 -892 -568 -668 -521
-1097 -1080 -1400 -1822 l-37 -91 -51 -7 c-29 -3 -62 -9 -74 -12 -16 -4 -23
-2 -23 8 0 8 -18 52 -41 98 l-40 84 21 61 c12 33 60 138 106 233 339 704 888
1332 1622 1855 809 577 1750 931 2762 1041 143 16 260 19 260 9z m1222 -378
c486 -61 927 -181 1388 -375 593 -250 1085 -581 1510 -1016 404 -414 732 -885
950 -1363 75 -165 73 -160 47 -165 -100 -21 -138 -32 -178 -52 l-45 -23 -102
202 c-294 589 -631 1019 -1107 1416 -163 136 -403 304 -551 387 l-64 36 15 28
c32 62 26 66 -87 66 -115 0 -162 13 -256 70 -93 56 -139 67 -261 62 l-107 -3
13 27 c16 30 9 70 -15 91 -21 17 -241 103 -377 147 -243 77 -714 180 -827 180
l-38 0 -50 101 c-28 55 -62 125 -75 155 l-24 54 24 0 c14 0 111 -11 217 -25z
m-1480 -137 c-41 -84 -75 -154 -76 -154 0 -1 -53 -9 -116 -19 -916 -133 -1757
-481 -2425 -1004 -329 -257 -642 -576 -869 -884 -168 -228 -321 -495 -437
-762 -23 -55 -43 -101 -44 -102 -1 -1 -20 7 -42 18 -52 25 -138 49 -180 49
-41 0 -41 8 -4 102 152 382 380 762 665 1108 99 120 378 397 526 521 731 614
1527 999 2460 1189 176 36 508 86 586 89 l30 1 -74 -152z m1558 -208 c205 -27
515 -104 769 -192 189 -65 204 -73 191 -98 -16 -30 -12 -65 10 -85 17 -16 20
-31 20 -115 l0 -98 -67 25 c-260 94 -665 195 -953 237 -102 15 -200 29 -217
32 l-33 5 0 100 0 99 85 -6 c98 -8 101 -5 65 75 l-20 43 32 -5 c18 -4 71 -11
118 -17z m-1680 -40 c-11 -23 -18 -46 -14 -51 4 -8 34 -9 91 -4 l84 7 -3 -103
-3 -103 -149 -18 c-171 -21 -339 -53 -540 -104 l-139 -35 -46 19 c-72 31 -120
35 -217 18 -119 -21 -118 -21 -93 13 26 35 22 68 -13 94 -33 25 -71 17 -95
-19 -16 -25 -16 -28 5 -68 17 -31 22 -58 22 -111 l0 -71 -135 -52 c-283 -111
-681 -328 -936 -510 -650 -465 -1097 -1015 -1354 -1667 -57 -147 -71 -175 -84
-175 -3 0 -17 24 -31 52 -14 29 -54 83 -89 121 l-64 68 23 57 c175 432 467
871 820 1236 223 230 498 459 770 641 451 301 930 515 1495 670 196 54 588
131 683 134 l32 1 -20 -40z m1193 -25 c81 -8 151 -16 156 -19 4 -3 11 -195 14
-428 4 -233 10 -541 14 -685 l6 -263 -45 0 -45 0 -7 46 c-3 26 -6 75 -6 109
l0 63 -166 7 c-95 4 -170 3 -175 -2 -5 -5 -12 -55 -15 -111 l-7 -102 -108 0
-107 0 -6 63 c-4 34 -7 82 -9 107 l-2 45 -127 3 c-70 1 -149 -1 -175 -5 l-48
-8 -5 -105 -5 -105 -73 -5 c-41 -3 -76 -3 -78 -1 -3 3 -2 55 1 115 3 61 12
370 21 686 8 316 16 575 17 577 3 3 324 32 407 37 111 6 418 -3 573 -19z
m1535 -259 c-4 -25 -43 -34 -51 -12 -4 9 1 22 9 30 20 20 46 9 42 -18z m-3791
-17 c15 -15 5 -39 -17 -39 -22 0 -32 24 -17 39 6 6 14 11 17 11 3 0 11 -5 17
-11z m2873 -54 c206 -40 475 -110 678 -177 l182 -60 0 -103 0 -103 -73 -119
c-183 -295 -477 -806 -477 -829 0 -11 16 -14 65 -14 l65 0 0 -325 0 -325 -78
0 c-43 0 -82 4 -88 10 -5 5 -68 11 -139 12 l-130 3 -6 165 c-4 91 -8 233 -10
315 l-3 150 45 5 44 5 3 243 c2 204 0 243 -12 248 -8 3 -86 6 -173 7 l-158 2
-2 -50 c-2 -27 -5 -69 -9 -92 l-5 -43 -48 0 -48 0 -6 128 c-4 70 -10 325 -13
568 l-7 441 134 -18 c74 -10 195 -30 269 -44z m-1654 -32 c-3 -49 -10 -270
-16 -493 -6 -223 -13 -438 -16 -477 -6 -72 -6 -73 -33 -73 l-28 0 -7 92 c-3
51 -9 95 -14 100 -7 7 -304 -8 -329 -17 -10 -3 -13 -62 -13 -250 l0 -245 23
-1 c68 -3 62 8 60 -124 -1 -66 -5 -209 -8 -317 l-7 -197 -127 -5 c-69 -3 -165
-8 -213 -11 l-88 -6 0 326 0 327 60 -4 c43 -3 64 0 72 9 11 13 -22 76 -185
353 -63 108 -99 170 -236 407 -131 227 -137 250 -68 278 73 29 135 30 218 4
168 -54 299 -21 418 107 34 36 60 71 58 77 -2 8 -40 14 -98 18 -89 5 -199 38
-199 59 0 25 597 144 748 149 l34 1 -6 -87z m2941 -54 c114 -60 180 -79 268
-79 30 0 55 -4 55 -9 0 -22 -100 -107 -160 -135 -92 -43 -161 -46 -273 -11
-73 23 -100 27 -160 22 -40 -2 -80 -8 -89 -12 -17 -7 -18 3 -18 128 l0 135 48
10 c26 6 86 10 134 9 84 -2 89 -4 195 -58z m-3855 17 c21 -8 66 -32 100 -54
67 -43 146 -70 216 -74 23 -1 42 -5 42 -9 0 -13 -79 -78 -122 -100 -64 -33
-156 -36 -249 -10 -87 24 -176 26 -234 6 -22 -8 -43 -15 -47 -15 -5 0 -8 56
-8 125 l0 125 43 1 c23 1 56 5 72 9 49 12 147 10 187 -4z m4286 -240 c220
-133 405 -270 612 -452 432 -382 749 -805 1018 -1362 l74 -154 -60 -62 c-33
-34 -72 -86 -86 -115 -15 -29 -29 -51 -30 -49 -2 1 -38 79 -80 172 -158 350
-394 728 -615 986 -331 387 -654 645 -1146 915 l-70 39 50 11 c63 14 164 67
200 105 16 16 31 28 34 26 3 -2 48 -29 99 -60z m-4544 -303 c187 -321 428
-745 424 -748 -2 -2 -60 1 -128 6 -166 13 -572 13 -739 0 -74 -6 -137 -9 -139
-6 -6 5 187 343 345 603 69 114 133 219 142 234 9 16 18 28 21 28 3 0 36 -53
74 -117z m3793 -10 c178 -298 419 -730 412 -738 -2 -2 -56 1 -119 7 -63 6
-234 11 -380 11 -146 0 -317 -5 -380 -11 -63 -6 -116 -9 -118 -7 -5 5 22 54
186 335 207 354 314 530 322 525 4 -3 39 -57 77 -122z m-2127 -368 l0 -106
158 3 157 3 3 103 3 102 134 0 135 0 0 -109 0 -109 108 -7 c59 -3 134 -7 167
-8 l60 -2 7 93 c3 51 8 96 11 98 3 3 59 2 126 -2 l121 -7 0 -208 0 -208 -42
-3 -43 -3 0 -150 c0 -82 4 -279 9 -437 l8 -288 -106 0 -105 0 -3 103 -3 102
-175 0 -175 0 -3 -102 -3 -103 -114 0 -114 0 -3 103 -3 102 -170 0 -170 0 -3
-102 -3 -103 -114 0 -114 0 -3 103 -3 102 -170 0 -170 0 -3 -102 -3 -103 -115
0 -115 0 6 213 c4 116 10 309 15 427 5 139 4 219 -3 228 -5 6 -25 12 -43 12
l-34 0 0 210 0 210 33 0 c17 0 76 3 130 7 l97 6 0 -89 c0 -49 4 -95 9 -102 7
-12 36 -12 166 -3 87 6 164 11 172 11 10 0 13 21 13 88 0 142 -10 132 146 132
l134 0 0 -105z m-1430 -404 l75 -6 3 -200 c1 -110 0 -300 -4 -422 l-6 -223
-103 0 -103 0 -4 258 -3 257 -28 58 c-82 167 -257 134 -313 -58 -13 -48 -20
-165 -23 -432 l-1 -83 -111 0 -111 0 7 418 c4 229 10 420 14 424 13 14 564 21
711 9z m3864 -2 c2 -2 5 -193 7 -424 l4 -420 -110 0 -110 0 -5 255 c-5 249 -6
256 -31 311 -32 68 -75 101 -138 106 -57 5 -98 -18 -137 -77 -44 -67 -54 -132
-54 -378 l0 -223 -106 3 -106 3 -1 150 c0 83 0 272 1 422 l2 272 63 4 c79 6
715 2 721 -4z m-4204 -329 l0 -111 -57 3 c-58 3 -58 3 -55 33 8 79 66 185 101
185 7 0 11 -37 11 -110z m93 82 c32 -33 57 -101 57 -154 l0 -39 -52 3 -53 3
-3 108 c-3 119 3 129 51 79z m3697 -82 l0 -110 -55 0 c-54 0 -55 1 -55 28 0
73 61 192 99 192 7 0 11 -37 11 -110z m98 76 c33 -38 50 -81 54 -141 l3 -40
-52 -3 -53 -3 0 110 c0 61 4 111 9 111 5 0 22 -15 39 -34z m-7528 -243 c184
-50 337 -191 398 -367 13 -39 25 -72 26 -73 2 -2 40 7 87 18 236 60 490 -59
568 -266 l18 -49 94 -1 c82 0 101 -4 150 -28 69 -33 132 -100 166 -173 21 -47
25 -66 21 -132 -4 -94 -31 -154 -97 -220 -101 -101 -271 -159 -441 -149 -118
7 -193 26 -293 75 l-77 38 -43 -24 c-121 -70 -298 -126 -444 -141 -184 -19
-386 19 -554 103 l-87 43 -68 -23 c-162 -53 -344 -73 -524 -55 -265 27 -436
113 -507 259 -95 195 63 412 303 414 l71 1 11 48 c49 209 265 356 459 311 44
-10 63 -2 63 28 0 26 49 123 91 177 125 166 388 247 609 186z m11195 12 c209
-44 392 -205 441 -389 8 -28 14 -63 14 -78 0 -15 4 -29 9 -33 6 -3 40 -1 77 5
205 33 419 -76 506 -257 l32 -68 85 0 c72 0 95 -4 141 -26 76 -35 114 -70 144
-131 51 -102 26 -232 -59 -307 -74 -65 -190 -99 -280 -82 -48 9 -52 8 -108
-29 -188 -126 -445 -132 -681 -16 l-84 41 -80 -37 c-305 -143 -747 -137 -1049
15 l-66 34 -69 -23 c-287 -97 -618 -6 -726 201 -23 43 -27 62 -27 140 0 85 2
94 36 155 63 116 176 180 315 180 62 0 76 3 80 18 55 168 197 298 362 333 69
14 211 7 268 -14 l42 -15 37 76 c49 98 152 203 245 250 133 66 263 85 395 57z
m-7555 -90 l0 -95 -60 0 -60 0 0 95 0 95 60 0 60 0 0 -95z m150 -1 l0 -95 -52
3 -53 3 -3 79 c-2 44 -1 85 2 93 4 8 23 13 56 13 l50 0 0 -96z m3640 6 l0 -90
-60 0 -60 0 0 53 c0 28 3 69 6 90 l7 37 53 0 54 0 0 -90z m160 0 l0 -90 -55 0
-55 0 0 90 0 90 55 0 55 0 0 -90z m-2482 -212 l3 -108 148 0 c126 0 151 3 162
17 8 9 13 18 12 20 -2 1 -3 43 -3 91 l0 89 125 -1 125 -1 0 -92 c0 -50 3 -98
6 -107 9 -24 309 -24 318 0 3 9 6 58 6 110 l0 94 130 0 129 0 3 -107 3 -108
150 0 150 0 3 98 3 97 114 0 115 0 0 -52 c0 -29 9 -402 20 -828 11 -426 20
-837 20 -912 0 -135 0 -138 -22 -142 -25 -5 -357 -38 -398 -40 l-25 -1 -5 415
-5 415 -33 95 c-49 143 -111 239 -227 355 -148 148 -280 215 -494 252 -80 13
-107 14 -174 4 -218 -34 -377 -118 -533 -283 -122 -130 -206 -299 -233 -468
-6 -37 -11 -228 -11 -437 0 -348 -1 -373 -17 -373 -10 0 -112 12 -226 27
l-208 27 6 125 c3 69 12 360 20 646 9 286 20 637 25 780 6 143 10 290 10 328
l0 67 113 0 112 0 0 -97 0 -98 154 -3 c117 -2 156 1 163 10 4 7 8 57 8 111 l0
98 128 -3 127 -3 3 -107z m-861 -135 c-32 -1088 -48 -1579 -53 -1641 l-6 -73
-36 5 c-34 6 -426 46 -444 46 -4 0 -8 11 -8 25 0 64 -60 134 -130 152 -30 8
-36 14 -41 45 -15 92 -99 146 -198 128 -40 -7 -41 -7 -61 36 -27 55 -93 100
-161 109 l-51 7 6 67 c10 113 29 878 23 895 -4 11 -19 16 -47 16 l-40 0 0 195
0 195 100 0 99 0 3 -87 3 -88 155 0 155 0 3 88 3 87 134 0 134 0 3 -87 3 -88
150 0 150 0 3 93 3 92 76 0 76 0 -6 -217z m2763 122 l0 -95 149 0 c172 0 161
-7 161 106 l0 74 135 0 135 0 0 -90 0 -90 155 0 155 0 0 90 0 91 103 -3 102
-3 0 -190 0 -190 -45 -5 -45 -5 3 -165 c2 -91 7 -327 12 -525 7 -360 7 -360
-14 -375 -11 -8 -37 -31 -57 -52 -33 -35 -39 -37 -63 -28 -95 36 -202 -26
-222 -129 -6 -26 -11 -31 -36 -31 -74 0 -158 -87 -158 -164 l0 -24 -217 -6
c-120 -4 -250 -9 -289 -12 l-71 -6 -7 293 c-4 162 -11 463 -16 669 -5 206 -12
507 -16 668 l-7 292 76 0 77 0 0 -95z m-1342 -391 c312 -64 550 -279 653 -589
23 -68 23 -82 27 -486 l3 -416 -32 -7 c-17 -3 -42 -6 -55 -6 l-23 0 -3 408 -3
407 -31 82 c-41 109 -86 181 -167 269 -129 139 -287 214 -463 222 -122 5 -194
-11 -313 -69 -139 -68 -270 -211 -335 -367 -58 -138 -59 -146 -64 -574 l-4
-398 -28 0 c-15 0 -42 3 -59 6 l-32 7 3 416 3 416 34 97 c85 248 264 441 497
538 144 60 255 72 392 44z m-148 -839 l0 -675 -120 0 -120 0 0 253 c1 189 3
247 12 232 19 -35 52 -55 92 -55 50 0 106 52 106 99 0 39 -24 87 -49 101 -47
25 -122 4 -147 -41 -11 -20 -13 32 -14 337 l0 361 28 13 c52 25 137 49 175 49
l37 1 0 -675z m186 654 c38 -12 86 -30 107 -41 32 -16 38 -23 33 -41 -3 -12
-6 -298 -6 -634 l0 -613 -129 0 -129 0 -5 73 c-7 104 -9 1195 -1 1240 5 32 9
37 34 37 15 0 59 -10 96 -21z m-456 -699 l0 -630 -59 0 c-32 0 -79 -3 -105 -6
l-46 -7 0 540 0 540 42 53 c39 49 143 140 161 140 4 0 7 -283 7 -630z m705
558 c38 -35 81 -80 97 -102 l28 -39 0 -524 0 -523 -105 0 -105 0 0 625 c0 344
4 625 9 625 4 0 39 -28 76 -62z m-3285 -19 c34 -18 78 -52 99 -75 32 -37 44
-62 67 -143 3 -8 11 -10 22 -6 31 13 90 18 127 11 l36 -7 -3 -171 c-2 -142 -6
-172 -18 -176 -8 -3 -36 -26 -62 -53 l-47 -48 -38 15 c-49 21 -119 14 -167
-16 -43 -26 -86 -85 -95 -131 -6 -28 -12 -33 -54 -44 -71 -18 -127 -79 -127
-140 0 -22 -4 -25 -33 -25 -159 0 -878 -51 -929 -66 -20 -6 -58 60 -58 101 0
67 65 135 129 135 35 0 37 3 46 73 5 36 16 59 41 87 53 59 100 69 204 44 l25
-5 0 83 c0 90 13 127 64 181 57 62 156 87 247 64 l31 -8 6 60 c9 104 67 197
154 248 77 45 112 54 195 49 62 -3 88 -10 138 -37z m2335 -1166 c-2 -8 -23
-13 -50 -13 l-46 0 3 398 c4 378 5 400 26 463 12 37 32 89 45 115 l22 49 3
-500 c1 -275 0 -506 -3 -512z m1125 956 c12 -22 30 -75 41 -116 17 -69 19
-113 19 -460 l0 -383 -45 0 -45 0 0 500 c0 275 2 500 5 500 2 0 14 -18 25 -41z
m2585 -3 c93 -39 155 -127 155 -219 l0 -49 43 8 c92 17 153 -3 194 -66 18 -26
23 -47 23 -98 0 -57 2 -63 18 -57 45 19 107 16 151 -7 60 -31 82 -64 90 -135
5 -44 10 -57 21 -54 52 13 148 12 181 -2 130 -54 196 -219 139 -346 -23 -50
10 -50 -265 -7 -179 28 -486 68 -672 87 -122 12 -123 13 -123 38 -1 65 -54
134 -124 161 -22 8 -26 16 -26 47 0 86 -85 151 -181 140 -45 -6 -47 -5 -52 22
-13 63 -102 130 -174 131 l-33 0 0 124 c0 125 0 125 28 144 72 51 148 51 227
1 l46 -29 17 32 c24 47 89 107 136 129 49 22 134 24 181 5z m-3287 -378 c7 -7
12 -26 12 -43 0 -17 -5 -36 -12 -43 -7 -7 -26 -12 -43 -12 -17 0 -36 5 -43 12
-7 7 -12 26 -12 43 0 17 5 36 12 43 7 7 26 12 43 12 17 0 36 -5 43 -12z
m-2261 -28 c40 -24 65 -61 73 -108 6 -41 14 -43 87 -21 87 27 158 -22 158
-108 0 -36 4 -45 20 -48 11 -2 32 -6 47 -9 38 -9 87 -53 96 -89 5 -18 8 -34 6
-37 -1 -3 -42 -3 -91 1 -218 19 -506 29 -798 29 l-317 0 7 28 c15 64 67 102
138 102 33 0 34 2 41 46 12 92 72 148 157 148 36 0 56 -7 83 -28 35 -26 56
-27 56 -3 0 24 49 84 82 100 45 23 116 21 155 -3z m5020 -70 c39 -24 63 -67
63 -116 0 -35 1 -36 28 -29 15 4 50 9 78 12 47 4 55 2 85 -25 31 -28 34 -35
33 -86 -2 -54 -1 -55 30 -62 73 -15 116 -60 116 -119 0 -24 -3 -25 -32 -21
-139 23 -797 64 -1029 66 l-37 0 8 35 c17 74 70 115 148 115 l39 0 5 50 c4 38
12 58 32 79 47 49 85 47 188 -7 4 -2 16 14 26 35 21 39 56 76 82 86 35 13 106
6 137 -13z m-9132 -214 c53 -32 100 -92 117 -150 16 -58 21 -60 63 -32 123 84
272 3 264 -142 l-3 -47 56 3 c68 4 130 -23 154 -69 8 -17 13 -33 11 -36 -3 -2
-83 -21 -178 -43 -245 -54 -379 -89 -733 -190 -244 -70 -713 -220 -828 -265
-17 -7 -18 5 -18 152 0 185 3 192 89 201 l49 4 5 43 c6 61 42 114 91 136 50
23 85 24 133 4 19 -8 39 -15 44 -15 5 0 9 26 9 58 1 115 68 197 164 197 37 0
60 -6 83 -23 18 -13 37 -21 42 -18 5 4 9 26 9 51 0 81 68 167 158 201 60 22
162 13 219 -20z m12956 -52 c48 -27 109 -92 109 -118 0 -6 5 -18 10 -26 7 -12
16 -7 46 28 51 60 105 86 180 87 79 0 145 -38 189 -109 26 -43 30 -60 31 -125
1 -42 2 -79 3 -83 0 -3 24 2 51 13 28 10 70 19 93 19 57 0 145 -45 174 -88 28
-43 42 -111 33 -161 -4 -22 -5 -43 -2 -46 3 -3 26 -5 52 -5 32 0 58 -7 81 -23
l34 -23 3 -233 c2 -218 1 -232 -15 -227 -246 76 -1864 482 -2075 521 l-37 7
15 37 c42 102 130 138 252 105 20 -6 22 -3 22 32 0 105 65 195 158 219 45 12
59 12 102 -1 27 -8 52 -19 55 -24 14 -23 35 -9 35 23 0 48 46 132 92 169 93
73 210 85 309 32z m-8821 -104 c387 -18 884 -65 1320 -125 96 -13 218 -29 270
-36 109 -14 136 -23 99 -34 -42 -14 -147 -85 -180 -122 -80 -91 -99 -195 -53
-293 54 -116 183 -198 489 -310 386 -141 561 -239 651 -366 84 -117 67 -228
-54 -349 -122 -122 -320 -231 -609 -335 l-62 -22 -173 41 c-606 147 -1053 230
-1493 278 -229 25 -796 25 -1025 0 -478 -52 -1252 -210 -1591 -325 l-85 -29
-24 19 c-50 40 -187 7 -315 -77 -33 -21 -111 -90 -174 -152 -62 -62 -111 -107
-107 -98 9 25 62 210 95 335 79 300 82 491 6 520 -114 43 -286 -254 -357 -615
-12 -63 -25 -115 -28 -115 -3 0 -13 42 -23 93 -10 50 -36 146 -59 212 -33 96
-41 135 -42 195 -1 41 -5 82 -9 91 -7 13 0 17 32 23 77 12 133 86 123 159 -7
43 -64 96 -113 103 -36 6 -40 9 -33 28 16 49 16 126 -1 152 -22 34 -74 64
-110 64 -40 -1 -109 -33 -128 -60 l-16 -22 -33 37 c-73 84 -187 84 -240 1 -19
-32 -21 -111 -3 -163 6 -20 4 -23 -19 -23 -34 0 -74 -21 -106 -55 -21 -22 -25
-36 -25 -87 0 -56 2 -62 36 -93 23 -21 51 -35 78 -40 35 -6 41 -10 35 -23 -14
-31 -16 -113 -4 -142 16 -39 42 -60 85 -70 50 -11 99 5 140 46 l35 35 26 -31
c49 -58 123 -77 183 -45 l28 14 31 -92 c41 -119 92 -333 92 -382 0 -5 -19 19
-42 55 -133 204 -366 344 -424 254 -16 -24 -16 -29 -1 -78 10 -29 58 -114 107
-190 50 -75 90 -139 90 -142 0 -3 -12 4 -26 15 -46 36 -119 54 -203 49 l-76
-4 0 95 c0 83 -4 104 -27 152 -32 70 -90 129 -160 166 -44 22 -66 27 -131 28
l-78 0 6 25 c14 58 17 234 5 289 -53 242 -281 392 -523 342 -80 -17 -187 -73
-252 -133 l-55 -50 2 273 3 273 120 43 c264 95 762 245 1135 342 241 63 541
126 1325 277 677 131 1148 185 1780 207 213 8 673 6 865 -3z m5020 -84 c273
-22 461 -42 785 -82 568 -70 832 -117 1595 -284 124 -27 329 -72 455 -99 461
-101 1326 -317 1985 -498 l65 -18 3 -239 2 -238 -31 26 c-72 61 -187 78 -264
40 l-40 -19 -61 62 c-137 140 -316 170 -456 77 -111 -74 -164 -188 -154 -329
3 -44 8 -92 12 -106 5 -25 3 -26 -40 -31 -151 -17 -266 -172 -266 -358 l0 -68
-37 14 c-58 20 -183 18 -243 -5 -100 -38 -196 -143 -221 -242 -12 -45 -14 -48
-38 -41 -14 4 -58 7 -96 6 -88 -1 -162 -32 -229 -96 -25 -25 -46 -42 -46 -40
0 12 113 216 167 302 116 183 137 245 97 284 -45 46 -173 -7 -295 -122 -171
-161 -314 -405 -387 -662 l-18 -65 -7 160 c-3 88 -2 230 3 315 5 85 9 161 10
169 0 8 14 1 35 -17 69 -62 148 -60 204 4 27 30 31 43 31 90 0 30 -7 68 -15
83 l-14 29 44 16 c63 24 105 76 105 128 0 80 -63 138 -149 138 -40 0 -41 1
-34 28 12 42 7 97 -12 130 -53 89 -191 82 -246 -13 l-21 -35 -29 25 c-99 83
-239 24 -239 -100 0 -20 7 -50 16 -66 8 -17 14 -32 12 -33 -2 -1 -22 -10 -46
-19 -43 -16 -46 -15 -170 19 -163 44 -479 108 -652 131 -168 22 -604 25 -750
5 -223 -31 -523 -96 -729 -158 -45 -14 -85 -23 -87 -21 -3 2 2 30 11 63 19 75
19 210 -1 287 -31 119 -104 235 -215 343 -93 90 -198 159 -364 239 -273 133
-531 217 -1055 344 -394 96 -487 141 -466 226 36 144 536 279 1201 324 88 6
178 13 200 15 111 10 1004 -3 1185 -18z m-2330 -105 c-343 -111 -409 -289
-147 -392 48 -19 137 -42 572 -150 419 -103 817 -257 1030 -400 266 -178 399
-429 352 -665 -32 -155 -139 -326 -283 -450 -32 -28 -140 -113 -239 -189 -304
-233 -440 -359 -540 -500 -47 -65 -105 -171 -123 -222 l-11 -33 -1746 0 -1747
0 23 38 c73 122 208 258 354 358 306 209 992 519 1654 746 374 128 597 243
734 380 128 128 152 268 68 400 -44 68 -160 159 -291 227 -117 59 -157 76
-425 177 -196 74 -296 125 -357 182 -81 76 -107 148 -83 228 34 114 146 204
337 268 l73 25 440 0 440 0 -85 -28z m-6569 -947 c30 -15 68 -80 69 -116 0
-36 35 -18 57 30 26 55 65 82 120 82 44 0 67 -19 78 -63 8 -31 -16 -107 -41
-127 -30 -26 -15 -38 52 -42 60 -4 70 -7 95 -36 35 -39 37 -72 5 -109 -22 -26
-31 -28 -97 -30 -77 -2 -93 -11 -65 -41 49 -55 56 -141 13 -179 -56 -52 -125
-31 -163 51 -13 28 -24 57 -24 64 0 29 -29 8 -44 -33 -21 -55 -76 -105 -115
-105 -39 0 -79 34 -87 74 -6 37 20 111 49 135 30 24 19 31 -48 31 -69 0 -118
17 -129 45 -33 86 44 159 149 142 18 -3 35 -3 38 0 3 2 -9 27 -26 55 -76 122
-2 232 114 172z m-880 -134 c164 -31 287 -162 319 -340 14 -77 8 -158 -20
-259 -12 -41 -19 -76 -16 -78 3 -3 19 0 37 6 51 17 158 13 205 -8 127 -58 201
-206 176 -350 -6 -31 -13 -64 -17 -73 -9 -23 9 -23 83 -2 123 36 229 -7 317
-129 l20 -28 45 23 c61 31 215 33 274 4 89 -44 146 -137 146 -236 0 -59 1 -60
28 -60 34 0 109 -34 140 -63 70 -65 81 -159 29 -259 l-33 -63 -1102 -3 -1102
-2 0 850 0 850 72 74 c82 82 168 130 258 145 77 12 81 12 141 1z m14106 -101
c43 -16 74 -38 118 -83 34 -33 68 -72 76 -85 l15 -24 44 29 c37 25 53 29 109
29 72 -1 108 -15 166 -66 l35 -31 0 -794 0 -794 -1184 0 -1184 0 -6 25 c-16
65 44 165 112 186 l37 11 0 91 c0 83 3 97 30 145 37 68 112 136 172 156 57 20
145 20 198 1 22 -8 43 -15 46 -15 3 0 9 22 12 49 12 99 83 198 180 248 44 23
65 28 132 28 67 0 90 -5 139 -28 33 -15 63 -24 68 -19 4 4 3 34 -2 67 -34 207
109 402 279 382 27 -3 51 -4 53 -1 3 2 -6 37 -20 76 -48 144 -16 290 82 374
76 65 188 82 293 43z m-12370 -161 c32 -40 20 -195 -31 -401 -32 -127 -157
-588 -162 -596 -2 -1 -18 8 -36 22 -18 14 -52 34 -76 46 l-42 22 6 67 c29 334
140 680 258 806 43 47 66 56 83 34z m10434 -117 c36 -36 38 -81 8 -152 -12
-27 -20 -51 -18 -54 3 -2 25 1 49 6 88 20 160 -15 160 -77 0 -70 -43 -104
-130 -104 -59 0 -62 -9 -20 -64 36 -48 45 -86 30 -131 -12 -36 -51 -65 -87
-65 -35 0 -82 39 -108 90 -14 28 -31 50 -38 47 -6 -2 -17 -25 -23 -51 -28
-109 -137 -158 -188 -84 -22 32 -20 74 9 135 13 29 20 55 16 58 -5 2 -23 0
-41 -6 -17 -6 -54 -9 -81 -7 -65 7 -94 33 -94 87 0 67 60 111 150 111 25 0 45
2 45 5 0 3 -16 25 -35 51 -35 45 -45 96 -29 139 8 20 56 45 86 45 36 0 85 -35
110 -79 13 -23 27 -40 32 -38 5 2 15 25 22 52 8 34 23 59 48 82 46 43 87 44
127 4z m-7226 -66 c398 -38 854 -122 1477 -272 65 -15 118 -30 118 -33 0 -3
-51 -22 -113 -44 -557 -191 -1290 -533 -1548 -723 -151 -110 -281 -248 -335
-355 l-24 -48 -394 0 -393 0 1 78 c1 61 -4 86 -21 118 -42 79 -119 129 -218
140 l-53 6 -4 72 c-5 81 -29 135 -80 182 -73 70 -172 96 -266 71 l-52 -14 -6
26 c-31 160 -108 252 -251 303 -101 35 -262 19 -371 -36 -112 -57 -214 -169
-244 -268 -10 -33 -15 -38 -32 -33 -94 29 -138 31 -213 12 -35 -9 -50 -10 -46
-3 4 6 66 74 139 151 161 171 192 208 224 268 24 44 29 48 100 71 327 107
1038 261 1430 310 110 14 316 33 445 40 127 8 577 -4 730 -19z m5882 -59 c206
-27 481 -82 663 -133 52 -14 96 -27 97 -27 1 -1 -4 -20 -12 -43 -17 -49 -5
-104 30 -139 26 -26 97 -48 132 -41 18 3 22 1 19 -12 -24 -88 -4 -156 57 -184
46 -22 74 -21 122 3 21 11 39 19 39 17 1 -1 0 -137 -2 -301 l-3 -299 -34 77
c-101 233 -306 464 -478 540 -74 33 -120 34 -152 1 -14 -13 -25 -31 -25 -40 0
-32 31 -88 118 -213 110 -159 182 -278 228 -378 l35 -78 -43 40 c-176 162
-442 244 -515 160 -42 -50 -15 -91 168 -249 l128 -112 -1641 -3 c-903 -1
-1643 0 -1645 1 -6 6 28 80 65 142 115 193 234 307 662 635 181 139 279 236
356 351 l65 97 182 51 c284 80 520 125 812 155 79 8 462 -4 572 -18z m-9841
-240 c103 -48 234 -195 313 -353 l31 -63 -38 0 c-21 0 -62 -6 -92 -14 -30 -8
-55 -14 -56 -13 -27 53 -83 146 -137 227 -149 226 -154 278 -21 216z m1222
-47 c4 -36 -57 -115 -232 -299 -138 -144 -284 -322 -309 -377 -5 -13 -18 -23
-27 -23 -13 0 -19 12 -23 50 -3 27 -15 70 -26 95 l-20 45 30 57 c109 207 311
398 491 463 72 27 112 23 116 -11z m10492 -56 c0 -19 -43 -95 -155 -278 -37
-60 -89 -155 -115 -210 -82 -173 -180 -467 -180 -539 l0 -46 -105 0 -105 0 0
59 c0 66 28 210 61 316 90 292 313 606 493 695 52 26 106 27 106 3z m-9902
-148 c113 -50 181 -150 190 -276 l4 -66 57 23 c153 64 310 -10 341 -161 7 -36
8 -66 1 -96 -16 -67 -18 -65 59 -61 61 4 78 1 126 -23 88 -43 129 -128 110
-229 l-7 -36 -944 0 c-520 0 -945 1 -945 3 0 1 11 24 24 50 63 123 31 261 -75
332 l-38 25 20 34 c34 58 100 117 164 147 93 45 217 37 277 -17 24 -22 35 -11
40 40 16 137 162 283 327 328 90 25 191 18 269 -17z m8647 -92 c233 -118 477
-475 533 -781 l9 -52 -107 0 -107 0 -33 93 c-52 146 -144 318 -277 514 -126
187 -146 228 -122 244 17 11 62 2 104 -18z m-100 -512 c125 -49 226 -125 317
-239 l61 -77 -121 -3 -121 -3 -98 83 c-123 104 -253 231 -253 247 0 38 106 35
215 -8z"/>
<path d="M12672 9858 c-7 -9 9 -63 57 -191 37 -97 73 -183 79 -189 9 -9 15 -9
26 2 12 13 5 39 -53 190 -83 217 -84 218 -109 188z"/>
<path d="M13586 9828 c-8 -13 -52 -99 -97 -191 -57 -118 -78 -172 -71 -179 6
-6 18 -8 26 -5 18 7 188 354 184 376 -5 24 -26 24 -42 -1z"/>
<path d="M2755 9526 c-121 -24 -218 -69 -306 -142 -51 -42 -121 -129 -139
-173 -7 -17 -13 -31 -14 -31 0 0 -26 10 -56 21 -69 27 -212 36 -292 20 -166
-35 -314 -168 -369 -330 l-21 -61 -63 6 c-43 5 -86 1 -138 -10 -156 -35 -266
-117 -329 -243 -30 -61 -33 -76 -33 -153 0 -76 4 -93 33 -152 53 -108 171
-199 307 -237 62 -17 195 -24 245 -13 42 10 46 9 85 -22 177 -144 422 -198
647 -140 80 20 142 48 211 96 l60 40 76 -23 c63 -20 98 -24 201 -24 179 0 293
38 432 142 l63 48 50 -11 c123 -29 286 -7 400 54 71 38 175 146 208 214 100
210 24 433 -185 539 -100 51 -213 58 -335 23 -20 -6 -23 -3 -23 23 0 98 -83
285 -164 367 -141 145 -352 211 -551 172z m253 -50 c210 -56 361 -218 407
-435 8 -40 15 -88 15 -107 0 -19 3 -34 6 -34 3 0 37 10 76 21 186 57 384 -24
465 -190 24 -49 28 -68 28 -146 0 -82 -3 -97 -32 -156 -86 -174 -304 -287
-504 -260 -41 5 -88 15 -104 21 -26 10 -32 8 -64 -24 -20 -18 -61 -49 -91 -68
-174 -110 -384 -133 -573 -65 l-66 24 -23 -24 c-37 -40 -194 -111 -283 -129
-200 -41 -431 17 -576 145 -45 39 -47 39 -90 29 -24 -5 -84 -8 -134 -5 -181
10 -325 93 -397 229 -18 35 -23 59 -23 128 0 78 3 90 34 148 36 66 101 131
161 162 79 40 149 53 257 47 l101 -6 7 40 c12 67 72 176 131 233 80 78 214
136 314 136 59 0 149 -20 208 -46 30 -13 56 -24 58 -24 1 0 20 33 41 73 72
138 216 247 375 282 83 18 210 18 276 1z"/>
<path d="M12930 9394 c-149 -39 -306 -149 -389 -274 -136 -202 -148 -462 -33
-685 50 -97 181 -228 279 -278 417 -216 902 41 964 511 28 211 -51 419 -219
572 -76 70 -191 131 -292 154 -81 19 -237 19 -310 0z m323 -51 c163 -48 322
-180 391 -325 117 -244 69 -526 -124 -718 -112 -112 -257 -171 -425 -171 -110
0 -184 19 -285 71 -150 78 -270 232 -316 403 -19 70 -18 225 2 300 86 332 435
536 757 440z"/>
<path d="M12009 9334 c-17 -20 -15 -22 183 -144 159 -97 198 -112 198 -77 0
10 -292 199 -361 234 -4 1 -12 -4 -20 -13z"/>
<path d="M14040 9142 c-185 -83 -226 -110 -187 -125 17 -6 395 162 401 179 3
7 -1 17 -7 23 -9 7 -68 -15 -207 -77z"/>
<path d="M12295 8510 c-11 -5 -94 -37 -185 -70 -91 -34 -169 -65 -175 -71 -6
-6 -4 -15 6 -24 16 -16 -6 -23 317 101 70 27 92 40 90 53 -4 19 -25 23 -53 11z"/>
<path d="M13859 8494 c-7 -9 -9 -18 -3 -24 11 -11 370 -150 388 -150 19 0 27
26 13 38 -11 9 -90 40 -309 122 -67 25 -78 27 -89 14z"/>
<path d="M12630 7870 c-50 -100 -88 -185 -85 -190 4 -6 14 -10 23 -10 12 0 43
51 105 175 48 96 87 182 87 190 0 8 -9 15 -20 15 -16 0 -38 -37 -110 -180z"/>
<path d="M13400 8028 c0 -7 36 -94 79 -193 61 -140 83 -180 97 -180 10 0 20 7
22 15 1 8 -33 94 -76 190 -64 142 -82 176 -100 178 -13 2 -22 -2 -22 -10z"/>
<path d="M14305 7366 c-118 -39 -221 -117 -277 -211 l-31 -52 -41 15 c-24 9
-75 15 -121 15 -96 -1 -169 -25 -240 -81 -51 -39 -120 -135 -130 -180 -5 -25
-11 -29 -73 -38 -190 -31 -313 -165 -300 -328 12 -148 127 -257 337 -317 143
-42 365 -33 517 20 l55 20 72 -34 c206 -98 453 -100 626 -4 42 23 72 32 118
35 88 4 133 19 201 64 100 67 148 163 140 279 -10 139 -114 256 -246 277 l-42
7 0 56 c-1 135 -56 265 -151 356 -87 83 -150 109 -274 112 -63 1 -115 -3 -140
-11z m280 -61 c151 -73 235 -218 235 -405 l0 -90 28 0 c54 0 133 -31 173 -67
89 -81 115 -194 69 -300 -43 -101 -141 -163 -270 -171 -60 -4 -87 -11 -135
-38 -96 -52 -165 -68 -290 -68 -120 1 -205 22 -330 83 -43 21 -64 27 -76 20
-10 -5 -64 -20 -121 -34 -367 -89 -732 56 -730 289 1 102 59 186 167 237 48
23 74 29 128 29 63 0 67 1 67 23 0 36 45 122 89 170 89 96 231 131 358 88 34
-12 66 -21 70 -21 4 0 21 26 38 58 99 191 351 285 530 197z"/>
<path d="M1018 7217 c-149 -51 -265 -169 -308 -313 l-12 -41 -68 -5 c-84 -6
-179 -49 -244 -108 -146 -135 -131 -351 33 -464 132 -92 394 -118 603 -60 l57
16 74 -31 c84 -34 219 -61 312 -61 91 0 227 26 309 60 55 22 92 29 161 33 112
5 186 32 248 90 80 74 94 186 35 270 -23 32 -113 87 -144 87 -15 0 -24 10 -32
39 -17 54 -83 125 -146 156 -64 31 -168 48 -229 36 l-44 -8 -27 58 c-31 68
-121 169 -181 204 -118 69 -269 85 -397 42z m257 -32 c146 -38 255 -147 308
-307 5 -14 13 -16 39 -10 18 4 69 7 113 7 66 -1 89 -5 131 -27 66 -34 121 -97
136 -153 10 -38 16 -45 38 -45 39 -1 103 -34 133 -69 57 -68 45 -154 -30 -221
-57 -50 -131 -73 -233 -73 -59 1 -86 -4 -128 -24 -188 -86 -446 -85 -642 3
l-57 26 -69 -22 c-96 -31 -312 -39 -402 -16 -179 46 -282 149 -282 283 0 64
52 156 116 204 66 50 126 69 219 69 l72 0 7 38 c17 110 118 242 225 296 107
55 203 67 306 41z"/>
<path d="M7625 7341 c-55 -25 -108 -87 -135 -157 -26 -70 -42 -258 -38 -434
l3 -115 235 0 235 0 3 208 c2 157 -1 223 -13 272 -28 120 -80 197 -157 229
-48 21 -84 20 -133 -3z m45 -186 l0 -155 -54 0 c-29 0 -67 3 -84 6 -28 6 -30
9 -26 43 17 122 56 204 116 241 18 11 36 20 41 20 4 0 7 -70 7 -155z m96 134
c59 -36 114 -157 114 -251 l0 -38 -80 0 -80 0 0 155 c0 85 3 155 6 155 4 0 22
-9 40 -21z m-96 -474 l0 -145 -85 0 -85 0 0 145 0 145 85 0 85 0 0 -145z m215
113 c3 -18 5 -82 3 -143 l-3 -110 -82 -3 -83 -3 0 146 0 145 80 0 79 0 6 -32z"/>
<path d="M7028 5865 c-59 -40 -88 -112 -99 -247 -6 -62 -9 -151 -7 -198 l3
-85 95 -8 c52 -4 134 -4 183 -1 l87 6 0 173 c0 146 -3 183 -20 236 -23 72 -35
91 -81 125 -45 33 -111 33 -161 -1z m60 -132 l-3 -108 -55 0 c-55 0 -55 0 -53
30 4 56 25 113 55 149 51 62 59 51 56 -71z m100 71 c29 -35 49 -89 54 -149 l3
-30 -55 0 -55 0 -3 108 c-3 122 5 133 56 71z m-98 -329 l0 -105 -60 0 -60 0 0
105 0 105 60 0 60 0 0 -105z m160 0 l0 -105 -60 0 -60 0 0 105 0 105 60 0 60
0 0 -105z"/>
<path d="M8238 5872 c-38 -25 -67 -65 -91 -125 -17 -43 -21 -81 -25 -225 -3
-124 -1 -177 7 -185 16 -16 352 -10 364 6 14 20 1 346 -16 400 -19 58 -58 112
-97 132 -39 20 -109 19 -142 -3z m52 -137 l0 -115 -60 0 c-56 0 -60 2 -60 23
0 53 33 132 70 169 21 21 40 38 44 38 3 0 6 -52 6 -115z m89 83 c30 -27 59
-94 67 -152 l7 -46 -56 0 -55 0 -7 65 c-8 67 0 155 14 155 4 0 18 -10 30 -22z
m-89 -343 l0 -105 -60 0 -60 0 0 105 0 105 60 0 60 0 0 -105z m160 0 l0 -105
-60 0 c-69 0 -66 -9 -54 133 l7 77 53 0 54 0 0 -105z"/>
<path d="M8548 4799 c-15 -9 -18 -26 -18 -118 0 -85 3 -111 15 -121 12 -10 51
-12 160 -7 80 3 149 8 155 12 6 4 10 53 10 115 0 98 -2 110 -19 120 -25 13
-280 13 -303 -1z m282 -119 l0 -80 -130 0 -130 0 0 80 0 80 130 0 130 0 0 -80z"/>
<path d="M6534 4777 c-2 -7 -3 -62 -2 -123 l3 -109 150 -2 c83 -2 155 1 162 5
15 9 28 156 19 206 l-7 36 -160 0 c-123 0 -161 -3 -165 -13z m284 -107 l-3
-81 -105 0 c-58 -1 -113 0 -122 0 -16 1 -18 12 -18 81 l0 80 125 0 126 0 -3
-80z"/>
<path d="M8660 3684 c-13 -34 -13 -160 0 -185 10 -17 22 -19 128 -19 79 0 122
4 130 12 15 15 16 171 2 199 -10 17 -22 19 -131 19 -119 0 -120 0 -129 -26z
m220 -89 l0 -75 -90 0 -90 0 0 75 0 75 90 0 90 0 0 -75z"/>
<path d="M5740 4692 c-47 -23 -96 -91 -117 -160 -13 -45 -17 -98 -17 -247 l-1
-190 200 0 200 0 0 205 c0 174 -3 213 -19 258 -44 126 -148 184 -246 134z m50
-157 l0 -125 -71 0 -72 0 7 43 c12 75 37 137 71 172 58 62 65 53 65 -90z m98
100 c36 -30 60 -86 71 -166 l8 -59 -69 0 -68 0 0 125 c0 139 4 146 58 100z
m-98 -385 l0 -110 -32 0 c-18 0 -50 -3 -70 -6 l-38 -7 0 117 0 116 70 0 70 0
0 -110z m178 -1 l-3 -112 -65 -1 -65 -1 -3 113 -3 112 71 0 71 0 -3 -111z"/>
<path d="M5913 3860 c-22 -9 -23 -15 -23 -114 0 -94 2 -106 19 -116 11 -5 79
-10 151 -10 72 0 140 5 151 10 17 10 19 22 19 115 0 93 -2 105 -19 115 -24 12
-267 12 -298 0z m267 -115 l0 -75 -120 0 -120 0 0 75 0 75 120 0 120 0 0 -75z"/>
<path d="M9535 4691 c-102 -63 -135 -175 -135 -451 0 -69 4 -131 8 -138 7 -9
54 -12 203 -10 l194 3 -1 200 c0 178 -2 206 -21 257 -26 70 -53 106 -101 135
-45 28 -106 30 -147 4z m49 -47 c3 -9 6 -65 6 -125 l0 -109 -71 0 -71 0 7 53
c8 64 48 150 82 177 31 24 39 25 47 4z m106 -23 c37 -39 70 -126 70 -184 0
-27 -1 -27 -65 -27 l-65 0 0 125 c0 88 3 125 12 125 6 0 28 -17 48 -39z m-109
-293 c4 -84 3 -177 -1 -181 -3 -3 -33 -8 -67 -12 l-63 -7 0 116 0 116 65 0 65
0 1 -32z m179 -78 l0 -110 -65 0 -65 0 0 110 0 110 65 0 65 0 0 -110z"/>
<path d="M9272 3858 c-15 -15 -16 -181 -2 -209 10 -17 23 -19 158 -19 81 0
153 4 160 8 9 6 12 37 10 118 l-3 109 -155 3 c-113 2 -159 -1 -168 -10z m288
-103 l0 -75 -125 0 -125 0 0 75 0 75 125 0 125 0 0 -75z"/>
<path d="M7788 3801 c-28 -25 -33 -36 -33 -76 0 -40 5 -51 33 -76 61 -54 147
-31 172 47 34 102 -91 178 -172 105z m121 -52 c13 -24 13 -29 -2 -53 -13 -20
-26 -26 -52 -26 -36 0 -55 20 -55 59 0 54 82 69 109 20z"/>
<path d="M4733 2911 c-36 -23 -59 -53 -68 -93 -7 -26 -7 -26 -43 -11 -55 23
-130 13 -159 -21 -28 -33 -30 -77 -5 -99 39 -35 68 -13 37 27 -48 63 94 88
150 26 34 -37 52 -26 60 37 5 43 14 63 35 85 16 15 37 28 47 28 48 0 93 -65
93 -135 0 -43 10 -44 60 -4 52 42 117 50 145 19 19 -21 19 -23 2 -52 -22 -38
-21 -48 2 -48 27 0 51 37 51 78 0 51 -39 82 -104 82 -28 -1 -62 -7 -76 -15
-35 -20 -37 -19 -49 18 -27 80 -114 118 -178 78z"/>
<path d="M2552 2655 c-25 -11 -39 -27 -55 -65 -18 -43 -24 -49 -42 -43 -70 26
-145 -11 -145 -72 0 -35 24 -75 46 -75 23 0 28 29 8 51 -14 15 -16 24 -8 37
18 28 71 27 115 -3 22 -14 44 -23 49 -20 6 3 10 26 10 51 0 71 23 104 72 104
35 0 59 -35 66 -95 6 -57 17 -64 50 -32 75 71 168 46 126 -34 -17 -33 -9 -54
18 -44 32 12 48 78 28 116 -25 45 -116 61 -158 27 -14 -12 -12 -14 -35 35 -17
37 -68 77 -97 77 -8 -1 -30 -7 -48 -15z"/>
<path d="M6077 2394 c-17 -9 -38 -35 -51 -64 -21 -46 -23 -47 -47 -34 -13 7
-45 13 -70 14 -51 0 -84 -23 -95 -65 -8 -33 13 -83 38 -91 27 -8 42 15 22 37
-17 19 -18 51 -2 67 26 26 92 7 132 -37 27 -29 46 -27 46 7 0 107 79 177 138
122 24 -22 46 -93 39 -122 -9 -32 19 -32 60 0 21 16 51 33 67 36 54 13 99 -42
61 -74 -19 -16 -19 -29 0 -37 26 -10 55 26 55 69 0 81 -77 109 -180 64 -11 -4
-21 7 -37 41 -35 76 -108 104 -176 67z"/>
<path d="M3393 2006 c-34 -16 -68 -62 -78 -107 -6 -25 -7 -26 -49 -16 -61 14
-110 2 -140 -34 -33 -38 -33 -63 -1 -95 21 -21 29 -23 40 -14 13 11 13 16 -2
41 -16 27 -16 30 0 46 26 26 100 22 138 -6 42 -31 59 -22 59 33 0 58 17 94 51
112 55 28 107 -17 117 -101 2 -25 9 -48 14 -51 5 -3 26 12 47 35 57 61 106 76
142 40 19 -19 20 -22 4 -46 -21 -32 -6 -54 25 -35 26 16 40 15 40 -2 0 -22 19
-30 35 -16 21 18 19 26 -15 63 -17 18 -40 45 -53 60 -32 41 -87 46 -150 14
l-48 -25 -13 32 c-30 70 -100 100 -163 72z"/>
<path d="M10333 2600 c-32 -19 -63 -66 -63 -95 0 -17 -16 -20 -25 -5 -9 15
-75 30 -106 23 -70 -14 -106 -106 -59 -153 25 -25 50 -26 50 -1 0 10 -7 24
-15 31 -34 28 -2 80 49 80 35 0 66 -16 93 -47 30 -37 53 -25 53 27 0 79 43
122 106 106 31 -8 54 -58 54 -116 0 -22 4 -40 10 -40 5 0 31 14 57 30 56 36
102 39 129 9 18 -20 18 -22 1 -51 -22 -38 -21 -48 2 -48 38 0 63 66 45 115
-16 41 -118 59 -174 30 -27 -14 -30 -14 -30 1 0 31 -34 87 -64 105 -40 24 -73
24 -113 -1z"/>
<path d="M12313 2543 c-32 -6 -83 -60 -90 -94 -3 -16 -7 -29 -9 -29 -2 0 -18
9 -36 20 -64 39 -146 19 -166 -40 -18 -49 10 -110 50 -110 22 0 23 18 3 44
-22 29 -18 53 10 72 34 22 71 11 117 -33 47 -46 68 -40 68 21 0 59 37 106 84
106 48 0 69 -29 74 -100 5 -70 13 -73 67 -30 36 29 57 35 100 31 37 -3 47 -51
18 -83 -12 -14 -14 -21 -5 -30 17 -17 40 -2 59 36 21 46 4 91 -44 114 -29 14
-40 14 -76 4 -66 -20 -70 -19 -78 13 -17 61 -84 101 -146 88z"/>
<path d="M13633 1970 c-18 -10 -43 -41 -57 -67 -14 -26 -25 -43 -26 -36 0 14
-79 53 -108 53 -52 0 -102 -48 -102 -98 0 -11 -7 -22 -15 -26 -17 -6 -20 -42
-4 -52 6 -3 16 -1 21 4 6 6 24 8 39 5 31 -6 40 12 18 34 -18 18 -6 66 20 79
35 18 75 0 119 -52 44 -54 62 -56 62 -9 0 87 59 156 114 135 39 -15 58 -52 57
-114 0 -31 4 -58 9 -61 6 -4 23 3 39 14 76 54 178 29 138 -33 -28 -42 8 -65
37 -24 26 36 20 83 -11 108 -24 19 -37 21 -94 18 l-66 -5 -11 42 c-14 55 -70
105 -115 105 -18 0 -46 -9 -64 -20z"/>
<path d="M7101 2910 c-117 -25 -131 -91 -26 -120 61 -17 199 -9 248 15 51 24
49 62 -3 87 -43 21 -159 30 -219 18z m174 -34 c46 -13 52 -34 15 -53 -55 -28
-250 -8 -250 25 0 10 37 27 75 35 39 9 120 5 160 -7z"/>
<path d="M7996 2445 c-90 -32 -97 -82 -18 -118 39 -18 66 -22 157 -22 97 0
116 3 160 25 77 39 69 83 -22 116 -51 18 -226 17 -277 -1z m254 -26 c79 -20
79 -50 -1 -73 -89 -27 -231 -16 -271 21 -21 19 -15 31 20 45 65 25 169 28 252
7z"/>
<path d="M8997 1760 c-27 -5 -69 -19 -95 -32 -39 -19 -48 -28 -50 -54 -2 -24
3 -35 21 -47 94 -61 340 -64 429 -3 25 16 33 29 33 51 0 24 -7 34 -40 52 -67
37 -191 51 -298 33z m249 -47 c63 -24 66 -49 9 -78 -33 -17 -60 -20 -160 -20
-100 0 -127 3 -160 20 -72 36 -54 67 55 92 70 16 192 9 256 -14z"/>
<path d="M7900 1096 c-127 -35 -143 -100 -38 -147 47 -21 68 -23 188 -24 130
0 137 1 195 30 53 26 60 34 60 59 0 37 -33 62 -105 81 -67 18 -237 18 -300 1z
m286 -31 c27 -8 58 -21 69 -30 20 -15 20 -15 -7 -39 -55 -49 -266 -60 -361
-18 -24 11 -47 24 -50 29 -34 54 220 97 349 58z"/>
<path d="M6546 589 c-86 -11 -173 -50 -185 -81 -49 -125 402 -177 539 -62 35
30 37 42 9 77 -41 53 -220 85 -363 66z m258 -49 c75 -24 96 -47 67 -74 -45
-41 -195 -63 -314 -47 -82 11 -157 42 -157 65 0 66 255 102 404 56z"/>
<path d="M1504 1956 c-48 -21 -74 -61 -74 -113 0 -38 5 -50 34 -79 30 -30 40
-34 84 -34 44 0 55 5 86 34 30 28 36 40 36 75 0 51 -11 73 -47 99 -39 27 -83
34 -119 18z m85 -46 c10 -5 24 -22 30 -39 10 -24 10 -34 -3 -59 -16 -32 -34
-42 -72 -42 -33 0 -74 42 -74 75 0 53 70 92 119 65z"/>
<path d="M12535 1440 c-60 -24 -89 -102 -61 -162 46 -97 189 -86 225 17 12 35
11 45 -2 77 -26 62 -101 94 -162 68z m115 -70 c27 -51 -12 -114 -70 -112 -83
2 -103 105 -28 136 37 16 83 5 98 -24z"/>
<path d="M4603 1112 c-17 -15 -35 -44 -42 -64 -12 -38 -13 -38 -41 -23 -49 25
-107 19 -141 -14 -17 -18 -29 -40 -29 -56 0 -38 27 -85 50 -85 27 0 35 18 16
39 -20 22 -20 55 0 75 28 29 73 17 126 -32 38 -35 58 -24 58 33 0 79 39 125
96 113 29 -5 57 -54 62 -107 5 -58 24 -67 58 -30 23 26 74 49 107 49 48 0 73
-56 41 -91 -17 -19 -13 -49 6 -49 5 0 19 9 30 20 23 23 27 95 7 121 -32 42
-108 51 -169 21 l-36 -19 -6 29 c-3 17 -21 45 -40 64 -29 29 -41 34 -79 34
-35 0 -51 -6 -74 -28z"/>
<path d="M10699 1027 c-20 -13 -39 -38 -48 -62 -8 -22 -15 -41 -16 -43 -1 -1
-19 5 -41 14 -76 32 -157 -2 -170 -73 -10 -51 40 -113 68 -85 7 7 5 18 -7 35
-22 35 -16 69 16 84 35 17 84 2 125 -38 18 -17 38 -29 45 -27 7 2 13 25 15 55
5 110 64 154 125 94 25 -26 29 -37 29 -86 0 -70 16 -79 65 -37 58 52 134 52
150 2 4 -12 0 -31 -9 -45 -9 -13 -16 -29 -16 -35 0 -19 39 -10 54 12 44 63 -5
148 -86 148 -24 0 -56 -7 -72 -15 -30 -16 -45 -8 -46 23 0 27 -31 72 -60 87
-41 21 -82 19 -121 -8z"/>
</g>
</svg>
